<mxfile host="app.diagrams.net" agent="Mozilla/5.0 (Windows NT 10.0; Win64; x64) AppleWebKit/537.36 (KHTML, like Gecko) Chrome/130.0.0.0 Safari/537.36" version="24.8.3">
  <diagram name="Página-1" id="12xITjhyo40muYsyD4Z2">
    <mxGraphModel dx="831" dy="300" grid="1" gridSize="10" guides="1" tooltips="1" connect="1" arrows="1" fold="1" page="1" pageScale="1" pageWidth="827" pageHeight="1169" math="0" shadow="0">
      <root>
        <mxCell id="0" />
        <mxCell id="1" parent="0" />
        <mxCell id="JgPn-HXJBX7b4QQ2of4P-1" value="Cadastrar" style="ellipse;whiteSpace=wrap;html=1;" vertex="1" parent="1">
          <mxGeometry x="360" y="60" width="100" height="50" as="geometry" />
        </mxCell>
        <mxCell id="JgPn-HXJBX7b4QQ2of4P-2" value="Logoff" style="ellipse;whiteSpace=wrap;html=1;" vertex="1" parent="1">
          <mxGeometry x="360" y="180" width="100" height="50" as="geometry" />
        </mxCell>
        <mxCell id="JgPn-HXJBX7b4QQ2of4P-3" value="Login" style="ellipse;whiteSpace=wrap;html=1;" vertex="1" parent="1">
          <mxGeometry x="360" y="120" width="100" height="50" as="geometry" />
        </mxCell>
        <mxCell id="JgPn-HXJBX7b4QQ2of4P-4" value="Calcular Emissão" style="ellipse;whiteSpace=wrap;html=1;" vertex="1" parent="1">
          <mxGeometry x="360" y="240" width="100" height="50" as="geometry" />
        </mxCell>
        <mxCell id="JgPn-HXJBX7b4QQ2of4P-5" value="Acessar a pagina&lt;div&gt;Inicial&lt;/div&gt;" style="ellipse;whiteSpace=wrap;html=1;" vertex="1" parent="1">
          <mxGeometry x="360" y="300" width="100" height="50" as="geometry" />
        </mxCell>
        <mxCell id="JgPn-HXJBX7b4QQ2of4P-8" value="Criar Anuncio" style="ellipse;whiteSpace=wrap;html=1;" vertex="1" parent="1">
          <mxGeometry x="360" y="540" width="100" height="50" as="geometry" />
        </mxCell>
        <mxCell id="JgPn-HXJBX7b4QQ2of4P-9" value="Acessar Histórico de transação" style="ellipse;whiteSpace=wrap;html=1;" vertex="1" parent="1">
          <mxGeometry x="360" y="660" width="100" height="50" as="geometry" />
        </mxCell>
        <mxCell id="JgPn-HXJBX7b4QQ2of4P-10" value="Comprar creditos de carbono&amp;nbsp;" style="ellipse;whiteSpace=wrap;html=1;" vertex="1" parent="1">
          <mxGeometry x="360" y="600" width="100" height="50" as="geometry" />
        </mxCell>
        <mxCell id="JgPn-HXJBX7b4QQ2of4P-11" value="gerenciar Anuncio" style="ellipse;whiteSpace=wrap;html=1;" vertex="1" parent="1">
          <mxGeometry x="360" y="720" width="100" height="50" as="geometry" />
        </mxCell>
        <mxCell id="JgPn-HXJBX7b4QQ2of4P-12" value="Validar projetos" style="ellipse;whiteSpace=wrap;html=1;" vertex="1" parent="1">
          <mxGeometry x="360" y="780" width="100" height="50" as="geometry" />
        </mxCell>
        <mxCell id="JgPn-HXJBX7b4QQ2of4P-13" value="Trocar Senha" style="ellipse;whiteSpace=wrap;html=1;" vertex="1" parent="1">
          <mxGeometry x="460" y="150" width="100" height="50" as="geometry" />
        </mxCell>
        <mxCell id="JgPn-HXJBX7b4QQ2of4P-14" value="Exibir barra de navegação" style="ellipse;whiteSpace=wrap;html=1;" vertex="1" parent="1">
          <mxGeometry x="460" y="210" width="100" height="50" as="geometry" />
        </mxCell>
        <mxCell id="JgPn-HXJBX7b4QQ2of4P-15" value="CNPJ ou CPF" style="ellipse;whiteSpace=wrap;html=1;" vertex="1" parent="1">
          <mxGeometry x="260" y="90" width="100" height="50" as="geometry" />
        </mxCell>
        <mxCell id="JgPn-HXJBX7b4QQ2of4P-16" value="filtro de anúncios" style="ellipse;whiteSpace=wrap;html=1;" vertex="1" parent="1">
          <mxGeometry x="460" y="630" width="100" height="50" as="geometry" />
        </mxCell>
        <mxCell id="JgPn-HXJBX7b4QQ2of4P-18" value="Exibe anúncios Cadastrados" style="ellipse;whiteSpace=wrap;html=1;" vertex="1" parent="1">
          <mxGeometry x="260" y="570" width="100" height="50" as="geometry" />
        </mxCell>
        <mxCell id="JgPn-HXJBX7b4QQ2of4P-19" value="Ajusta o Valor do Credito do anuncio" style="ellipse;whiteSpace=wrap;html=1;" vertex="1" parent="1">
          <mxGeometry x="260" y="690" width="100" height="50" as="geometry" />
        </mxCell>
        <mxCell id="JgPn-HXJBX7b4QQ2of4P-20" value="Aplica critérios de validação" style="ellipse;whiteSpace=wrap;html=1;" vertex="1" parent="1">
          <mxGeometry x="260" y="820" width="100" height="50" as="geometry" />
        </mxCell>
        <mxCell id="JgPn-HXJBX7b4QQ2of4P-21" value="Notifica Validação" style="ellipse;whiteSpace=wrap;html=1;" vertex="1" parent="1">
          <mxGeometry x="460" y="820" width="100" height="50" as="geometry" />
        </mxCell>
        <mxCell id="JgPn-HXJBX7b4QQ2of4P-40" style="edgeStyle=orthogonalEdgeStyle;rounded=0;orthogonalLoop=1;jettySize=auto;html=1;entryX=0.5;entryY=1;entryDx=0;entryDy=0;" edge="1" parent="1" source="JgPn-HXJBX7b4QQ2of4P-22" target="JgPn-HXJBX7b4QQ2of4P-12">
          <mxGeometry relative="1" as="geometry" />
        </mxCell>
        <mxCell id="JgPn-HXJBX7b4QQ2of4P-41" style="edgeStyle=orthogonalEdgeStyle;rounded=0;orthogonalLoop=1;jettySize=auto;html=1;entryX=0.5;entryY=1;entryDx=0;entryDy=0;" edge="1" parent="1" source="JgPn-HXJBX7b4QQ2of4P-22" target="JgPn-HXJBX7b4QQ2of4P-21">
          <mxGeometry relative="1" as="geometry" />
        </mxCell>
        <mxCell id="JgPn-HXJBX7b4QQ2of4P-42" style="edgeStyle=orthogonalEdgeStyle;rounded=0;orthogonalLoop=1;jettySize=auto;html=1;entryX=0.5;entryY=1;entryDx=0;entryDy=0;" edge="1" parent="1" source="JgPn-HXJBX7b4QQ2of4P-22" target="JgPn-HXJBX7b4QQ2of4P-20">
          <mxGeometry relative="1" as="geometry" />
        </mxCell>
        <mxCell id="JgPn-HXJBX7b4QQ2of4P-22" value="Sistema Automatizado" style="shape=umlActor;verticalLabelPosition=bottom;verticalAlign=top;html=1;outlineConnect=0;" vertex="1" parent="1">
          <mxGeometry x="395" y="880" width="30" height="60" as="geometry" />
        </mxCell>
        <mxCell id="JgPn-HXJBX7b4QQ2of4P-45" style="edgeStyle=orthogonalEdgeStyle;rounded=0;orthogonalLoop=1;jettySize=auto;html=1;entryX=0;entryY=0.5;entryDx=0;entryDy=0;" edge="1" parent="1" source="JgPn-HXJBX7b4QQ2of4P-23" target="JgPn-HXJBX7b4QQ2of4P-1">
          <mxGeometry relative="1" as="geometry">
            <Array as="points">
              <mxPoint x="240" y="200" />
              <mxPoint x="240" y="85" />
            </Array>
          </mxGeometry>
        </mxCell>
        <mxCell id="JgPn-HXJBX7b4QQ2of4P-46" style="edgeStyle=orthogonalEdgeStyle;rounded=0;orthogonalLoop=1;jettySize=auto;html=1;entryX=0;entryY=0.5;entryDx=0;entryDy=0;" edge="1" parent="1" source="JgPn-HXJBX7b4QQ2of4P-23" target="JgPn-HXJBX7b4QQ2of4P-15">
          <mxGeometry relative="1" as="geometry">
            <Array as="points">
              <mxPoint x="240" y="200" />
              <mxPoint x="240" y="115" />
            </Array>
          </mxGeometry>
        </mxCell>
        <mxCell id="JgPn-HXJBX7b4QQ2of4P-47" style="edgeStyle=orthogonalEdgeStyle;rounded=0;orthogonalLoop=1;jettySize=auto;html=1;entryX=0;entryY=0.5;entryDx=0;entryDy=0;" edge="1" parent="1" source="JgPn-HXJBX7b4QQ2of4P-23" target="JgPn-HXJBX7b4QQ2of4P-4">
          <mxGeometry relative="1" as="geometry">
            <Array as="points">
              <mxPoint x="240" y="200" />
              <mxPoint x="240" y="265" />
            </Array>
          </mxGeometry>
        </mxCell>
        <mxCell id="JgPn-HXJBX7b4QQ2of4P-48" style="edgeStyle=orthogonalEdgeStyle;rounded=0;orthogonalLoop=1;jettySize=auto;html=1;entryX=0;entryY=0.5;entryDx=0;entryDy=0;" edge="1" parent="1" source="JgPn-HXJBX7b4QQ2of4P-23" target="JgPn-HXJBX7b4QQ2of4P-5">
          <mxGeometry relative="1" as="geometry">
            <Array as="points">
              <mxPoint x="240" y="200" />
              <mxPoint x="240" y="325" />
            </Array>
          </mxGeometry>
        </mxCell>
        <mxCell id="JgPn-HXJBX7b4QQ2of4P-49" style="edgeStyle=orthogonalEdgeStyle;rounded=0;orthogonalLoop=1;jettySize=auto;html=1;" edge="1" parent="1" source="JgPn-HXJBX7b4QQ2of4P-23" target="JgPn-HXJBX7b4QQ2of4P-3">
          <mxGeometry relative="1" as="geometry">
            <Array as="points">
              <mxPoint x="240" y="200" />
              <mxPoint x="240" y="145" />
            </Array>
          </mxGeometry>
        </mxCell>
        <mxCell id="JgPn-HXJBX7b4QQ2of4P-54" style="edgeStyle=orthogonalEdgeStyle;rounded=0;orthogonalLoop=1;jettySize=auto;html=1;entryX=0;entryY=0.5;entryDx=0;entryDy=0;" edge="1" parent="1" source="JgPn-HXJBX7b4QQ2of4P-23" target="JgPn-HXJBX7b4QQ2of4P-14">
          <mxGeometry relative="1" as="geometry">
            <Array as="points">
              <mxPoint x="240" y="200" />
              <mxPoint x="240" y="235" />
            </Array>
          </mxGeometry>
        </mxCell>
        <mxCell id="JgPn-HXJBX7b4QQ2of4P-23" value="Usuário não Logado" style="shape=umlActor;verticalLabelPosition=bottom;verticalAlign=top;html=1;outlineConnect=0;" vertex="1" parent="1">
          <mxGeometry x="170" y="170" width="30" height="60" as="geometry" />
        </mxCell>
        <mxCell id="JgPn-HXJBX7b4QQ2of4P-28" style="edgeStyle=orthogonalEdgeStyle;rounded=0;orthogonalLoop=1;jettySize=auto;html=1;" edge="1" parent="1" source="JgPn-HXJBX7b4QQ2of4P-25" target="JgPn-HXJBX7b4QQ2of4P-13">
          <mxGeometry relative="1" as="geometry" />
        </mxCell>
        <mxCell id="JgPn-HXJBX7b4QQ2of4P-29" style="edgeStyle=orthogonalEdgeStyle;rounded=0;orthogonalLoop=1;jettySize=auto;html=1;entryX=1;entryY=0.5;entryDx=0;entryDy=0;" edge="1" parent="1" source="JgPn-HXJBX7b4QQ2of4P-25" target="JgPn-HXJBX7b4QQ2of4P-3">
          <mxGeometry relative="1" as="geometry">
            <Array as="points">
              <mxPoint x="610" y="200" />
              <mxPoint x="610" y="145" />
            </Array>
          </mxGeometry>
        </mxCell>
        <mxCell id="JgPn-HXJBX7b4QQ2of4P-30" style="edgeStyle=orthogonalEdgeStyle;rounded=0;orthogonalLoop=1;jettySize=auto;html=1;" edge="1" parent="1" source="JgPn-HXJBX7b4QQ2of4P-25" target="JgPn-HXJBX7b4QQ2of4P-2">
          <mxGeometry relative="1" as="geometry">
            <Array as="points">
              <mxPoint x="610" y="200" />
              <mxPoint x="610" y="205" />
            </Array>
          </mxGeometry>
        </mxCell>
        <mxCell id="JgPn-HXJBX7b4QQ2of4P-31" style="edgeStyle=orthogonalEdgeStyle;rounded=0;orthogonalLoop=1;jettySize=auto;html=1;entryX=1;entryY=0.5;entryDx=0;entryDy=0;" edge="1" parent="1" source="JgPn-HXJBX7b4QQ2of4P-25" target="JgPn-HXJBX7b4QQ2of4P-4">
          <mxGeometry relative="1" as="geometry">
            <Array as="points">
              <mxPoint x="610" y="200" />
              <mxPoint x="610" y="265" />
            </Array>
          </mxGeometry>
        </mxCell>
        <mxCell id="JgPn-HXJBX7b4QQ2of4P-32" style="edgeStyle=orthogonalEdgeStyle;rounded=0;orthogonalLoop=1;jettySize=auto;html=1;entryX=1;entryY=0.5;entryDx=0;entryDy=0;" edge="1" parent="1" source="JgPn-HXJBX7b4QQ2of4P-25" target="JgPn-HXJBX7b4QQ2of4P-14">
          <mxGeometry relative="1" as="geometry" />
        </mxCell>
        <mxCell id="JgPn-HXJBX7b4QQ2of4P-33" style="edgeStyle=orthogonalEdgeStyle;rounded=0;orthogonalLoop=1;jettySize=auto;html=1;entryX=1;entryY=0.5;entryDx=0;entryDy=0;" edge="1" parent="1" source="JgPn-HXJBX7b4QQ2of4P-25" target="JgPn-HXJBX7b4QQ2of4P-5">
          <mxGeometry relative="1" as="geometry">
            <Array as="points">
              <mxPoint x="610" y="200" />
              <mxPoint x="610" y="325" />
            </Array>
          </mxGeometry>
        </mxCell>
        <mxCell id="JgPn-HXJBX7b4QQ2of4P-34" style="edgeStyle=orthogonalEdgeStyle;rounded=0;orthogonalLoop=1;jettySize=auto;html=1;entryX=1;entryY=0.5;entryDx=0;entryDy=0;" edge="1" parent="1" source="JgPn-HXJBX7b4QQ2of4P-25" target="JgPn-HXJBX7b4QQ2of4P-8">
          <mxGeometry relative="1" as="geometry">
            <Array as="points">
              <mxPoint x="610" y="200" />
              <mxPoint x="610" y="565" />
            </Array>
          </mxGeometry>
        </mxCell>
        <mxCell id="JgPn-HXJBX7b4QQ2of4P-35" style="edgeStyle=orthogonalEdgeStyle;rounded=0;orthogonalLoop=1;jettySize=auto;html=1;entryX=1;entryY=0.5;entryDx=0;entryDy=0;" edge="1" parent="1" source="JgPn-HXJBX7b4QQ2of4P-25" target="JgPn-HXJBX7b4QQ2of4P-16">
          <mxGeometry relative="1" as="geometry" />
        </mxCell>
        <mxCell id="JgPn-HXJBX7b4QQ2of4P-36" style="edgeStyle=orthogonalEdgeStyle;rounded=0;orthogonalLoop=1;jettySize=auto;html=1;entryX=1;entryY=0.5;entryDx=0;entryDy=0;" edge="1" parent="1" source="JgPn-HXJBX7b4QQ2of4P-25" target="JgPn-HXJBX7b4QQ2of4P-10">
          <mxGeometry relative="1" as="geometry">
            <Array as="points">
              <mxPoint x="610" y="200" />
              <mxPoint x="610" y="625" />
            </Array>
          </mxGeometry>
        </mxCell>
        <mxCell id="JgPn-HXJBX7b4QQ2of4P-37" style="edgeStyle=orthogonalEdgeStyle;rounded=0;orthogonalLoop=1;jettySize=auto;html=1;entryX=1;entryY=0.5;entryDx=0;entryDy=0;" edge="1" parent="1" source="JgPn-HXJBX7b4QQ2of4P-25" target="JgPn-HXJBX7b4QQ2of4P-9">
          <mxGeometry relative="1" as="geometry">
            <Array as="points">
              <mxPoint x="610" y="200" />
              <mxPoint x="610" y="685" />
            </Array>
          </mxGeometry>
        </mxCell>
        <mxCell id="JgPn-HXJBX7b4QQ2of4P-38" style="edgeStyle=orthogonalEdgeStyle;rounded=0;orthogonalLoop=1;jettySize=auto;html=1;entryX=1;entryY=0.5;entryDx=0;entryDy=0;" edge="1" parent="1" source="JgPn-HXJBX7b4QQ2of4P-25" target="JgPn-HXJBX7b4QQ2of4P-11">
          <mxGeometry relative="1" as="geometry">
            <Array as="points">
              <mxPoint x="610" y="200" />
              <mxPoint x="610" y="745" />
            </Array>
          </mxGeometry>
        </mxCell>
        <mxCell id="JgPn-HXJBX7b4QQ2of4P-43" style="edgeStyle=orthogonalEdgeStyle;rounded=0;orthogonalLoop=1;jettySize=auto;html=1;entryX=1;entryY=0.5;entryDx=0;entryDy=0;" edge="1" parent="1" source="JgPn-HXJBX7b4QQ2of4P-25" target="JgPn-HXJBX7b4QQ2of4P-19">
          <mxGeometry relative="1" as="geometry">
            <Array as="points">
              <mxPoint x="610" y="200" />
              <mxPoint x="610" y="715" />
            </Array>
          </mxGeometry>
        </mxCell>
        <mxCell id="JgPn-HXJBX7b4QQ2of4P-44" style="edgeStyle=orthogonalEdgeStyle;rounded=0;orthogonalLoop=1;jettySize=auto;html=1;entryX=1;entryY=0.5;entryDx=0;entryDy=0;" edge="1" parent="1" source="JgPn-HXJBX7b4QQ2of4P-25" target="JgPn-HXJBX7b4QQ2of4P-18">
          <mxGeometry relative="1" as="geometry">
            <Array as="points">
              <mxPoint x="610" y="200" />
              <mxPoint x="610" y="595" />
            </Array>
          </mxGeometry>
        </mxCell>
        <mxCell id="JgPn-HXJBX7b4QQ2of4P-52" style="edgeStyle=orthogonalEdgeStyle;rounded=0;orthogonalLoop=1;jettySize=auto;html=1;entryX=1;entryY=0.5;entryDx=0;entryDy=0;" edge="1" parent="1" source="JgPn-HXJBX7b4QQ2of4P-25" target="JgPn-HXJBX7b4QQ2of4P-50">
          <mxGeometry relative="1" as="geometry">
            <Array as="points">
              <mxPoint x="610" y="200" />
              <mxPoint x="610" y="385" />
            </Array>
          </mxGeometry>
        </mxCell>
        <mxCell id="JgPn-HXJBX7b4QQ2of4P-53" style="edgeStyle=orthogonalEdgeStyle;rounded=0;orthogonalLoop=1;jettySize=auto;html=1;entryX=1;entryY=0.5;entryDx=0;entryDy=0;" edge="1" parent="1" source="JgPn-HXJBX7b4QQ2of4P-25" target="JgPn-HXJBX7b4QQ2of4P-51">
          <mxGeometry relative="1" as="geometry">
            <Array as="points">
              <mxPoint x="610" y="200" />
              <mxPoint x="610" y="445" />
            </Array>
          </mxGeometry>
        </mxCell>
        <mxCell id="JgPn-HXJBX7b4QQ2of4P-56" style="edgeStyle=orthogonalEdgeStyle;rounded=0;orthogonalLoop=1;jettySize=auto;html=1;entryX=1;entryY=0.5;entryDx=0;entryDy=0;" edge="1" parent="1" source="JgPn-HXJBX7b4QQ2of4P-25" target="JgPn-HXJBX7b4QQ2of4P-55">
          <mxGeometry relative="1" as="geometry">
            <Array as="points">
              <mxPoint x="610" y="200" />
              <mxPoint x="610" y="505" />
            </Array>
          </mxGeometry>
        </mxCell>
        <mxCell id="JgPn-HXJBX7b4QQ2of4P-25" value="Vendedor / Comprador" style="shape=umlActor;verticalLabelPosition=bottom;verticalAlign=top;html=1;outlineConnect=0;" vertex="1" parent="1">
          <mxGeometry x="660" y="170" width="30" height="60" as="geometry" />
        </mxCell>
        <mxCell id="JgPn-HXJBX7b4QQ2of4P-50" value="Acessar a pagina&amp;nbsp;&lt;div&gt;de Anuncios&lt;/div&gt;" style="ellipse;whiteSpace=wrap;html=1;" vertex="1" parent="1">
          <mxGeometry x="360" y="360" width="100" height="50" as="geometry" />
        </mxCell>
        <mxCell id="JgPn-HXJBX7b4QQ2of4P-51" value="Criar um Projeto de compensação" style="ellipse;whiteSpace=wrap;html=1;" vertex="1" parent="1">
          <mxGeometry x="360" y="420" width="100" height="50" as="geometry" />
        </mxCell>
        <mxCell id="JgPn-HXJBX7b4QQ2of4P-55" value="Compensar Emissões" style="ellipse;whiteSpace=wrap;html=1;" vertex="1" parent="1">
          <mxGeometry x="360" y="480" width="100" height="50" as="geometry" />
        </mxCell>
        <mxCell id="JgPn-HXJBX7b4QQ2of4P-57" value="Include" style="text;html=1;align=center;verticalAlign=middle;whiteSpace=wrap;rounded=0;fillColor=#35FF26;" vertex="1" parent="1">
          <mxGeometry x="290" y="684" width="40" height="10" as="geometry" />
        </mxCell>
        <mxCell id="JgPn-HXJBX7b4QQ2of4P-58" value="Include" style="text;html=1;align=center;verticalAlign=middle;whiteSpace=wrap;rounded=0;fillColor=#35FF26;" vertex="1" parent="1">
          <mxGeometry x="290" y="820" width="40" height="10" as="geometry" />
        </mxCell>
        <mxCell id="JgPn-HXJBX7b4QQ2of4P-60" value="Include" style="text;html=1;align=center;verticalAlign=middle;whiteSpace=wrap;rounded=0;fillColor=#35FF26;" vertex="1" parent="1">
          <mxGeometry x="290" y="570" width="40" height="10" as="geometry" />
        </mxCell>
        <mxCell id="JgPn-HXJBX7b4QQ2of4P-61" value="Include" style="text;html=1;align=center;verticalAlign=middle;whiteSpace=wrap;rounded=0;fillColor=#35FF26;" vertex="1" parent="1">
          <mxGeometry x="290" y="90" width="40" height="10" as="geometry" />
        </mxCell>
        <mxCell id="JgPn-HXJBX7b4QQ2of4P-62" value="Extend" style="text;html=1;align=center;verticalAlign=middle;whiteSpace=wrap;rounded=0;fillColor=#2377CC;" vertex="1" parent="1">
          <mxGeometry x="490" y="630" width="40" height="10" as="geometry" />
        </mxCell>
        <mxCell id="JgPn-HXJBX7b4QQ2of4P-63" value="Extend" style="text;html=1;align=center;verticalAlign=middle;whiteSpace=wrap;rounded=0;fillColor=#2377CC;" vertex="1" parent="1">
          <mxGeometry x="490" y="150" width="40" height="10" as="geometry" />
        </mxCell>
        <mxCell id="JgPn-HXJBX7b4QQ2of4P-64" value="Extend" style="text;html=1;align=center;verticalAlign=middle;whiteSpace=wrap;rounded=0;fillColor=#2377CC;" vertex="1" parent="1">
          <mxGeometry x="490" y="210" width="40" height="10" as="geometry" />
        </mxCell>
        <mxCell id="JgPn-HXJBX7b4QQ2of4P-65" value="Extend" style="text;html=1;align=center;verticalAlign=middle;whiteSpace=wrap;rounded=0;fillColor=#2377CC;" vertex="1" parent="1">
          <mxGeometry x="490" y="820" width="40" height="10" as="geometry" />
        </mxCell>
      </root>
    </mxGraphModel>
  </diagram>
</mxfile>
